<?xml version="1.0" encoding="UTF-8" standalone="no"?>
<svg xmlns="http://www.w3.org/2000/svg" width="256" height="256" viewBox="0 0 256 256">
  <defs>
    <linearGradient id="space" x1="32" y1="24" x2="220" y2="232" gradientUnits="userSpaceOnUse">
      <stop offset="0" stop-color="#78aaff"/>
      <stop offset="0.5" stop-color="#5268cb"/>
      <stop offset="1" stop-color="#232a65"/>
    </linearGradient>
  </defs>
  <circle cx="128" cy="128" r="116" fill="#17191c" stroke="#a8c8ff" stroke-width="8"/>
  <circle cx="128" cy="128" r="98" fill="url(#space)"/>
  <path d="M180 79c-14-12-31-18-50-18-31 0-53 16-53 39 0 22 17 32 48 39 21 5 29 9 29 18 0 10-11 16-28 16-20 0-38-8-52-22l-20 25c18 18 43 28 71 28 35 0 58-18 58-45 0-23-16-35-50-43-20-5-27-8-27-16 0-8 9-13 24-13 15 0 29 5 41 15z" fill="#fff"/>
  <circle cx="193" cy="58" r="8" fill="#fff" opacity=".9"/>
  <circle cx="58" cy="130" r="5" fill="#fff" opacity=".75"/>
</svg>
